<?xml version="1.0" encoding="UTF-8" standalone="no"?><!DOCTYPE svg PUBLIC "-//W3C//DTD SVG 1.1//EN" "http://www.w3.org/Graphics/SVG/1.1/DTD/svg11.dtd"><svg width="100%" height="100%" viewBox="0 0 10071 2963" version="1.1" xmlns="http://www.w3.org/2000/svg" xmlns:xlink="http://www.w3.org/1999/xlink" xml:space="preserve" xmlns:serif="http://www.serif.com/" style="fill-rule:evenodd;clip-rule:evenodd;"><rect id="Artboard1" x="0" y="0" width="10070.833" height="2962.5" style="fill:none;"/><g id="Artboard11" serif:id="Artboard1"><g><path d="M2349.088,263.237c-3.93,1.359 -7.456,3.269 -10.577,5.729c-149.661,118.003 -266.525,209.819 -350.592,275.45c-73.306,57.183 -176.178,138.496 -308.614,243.938c-175.921,140.002 -278.645,221.535 -308.173,244.599c-22.33,17.445 -33.899,26.48 -34.707,27.104c-84.949,65.594 -170.485,133.097 -256.609,202.511c-15.59,12.616 -32.889,29.914 -40.987,45.504c-18.988,36.506 -55.971,97.693 -110.951,183.56c-11.863,18.51 -40.877,66.585 -87.042,144.225c-17.519,29.473 -35.808,54.098 -51.84,81.864c-12.157,21.008 -21.375,36.653 -27.655,46.937c-170.889,279.526 -310.597,508.407 -419.124,686.641c-47.304,77.677 -94.204,155.501 -140.7,233.471c-0.267,0.417 -0.409,0.901 -0.409,1.396c0,1.42 1.169,2.589 2.589,2.589c0.589,0 1.161,-0.201 1.621,-0.57c210.737,-164.829 382.82,-299.157 516.248,-402.983c24.974,-19.428 94.938,-75.033 209.893,-166.812c23.468,-18.731 51.84,-38.288 76.355,-57.789c71.36,-56.816 183.596,-145.18 336.71,-265.093c37.461,-29.381 82.341,-63.5 134.64,-102.357c7.602,-5.619 14.213,-13.681 19.832,-24.184c31.842,-59.167 70.515,-117.452 103.073,-171.936c46.312,-77.493 115.358,-192.044 207.138,-343.651c16.692,-27.6 32.007,-55.806 50.352,-84.233c7.823,-12.083 20.659,-32.962 38.508,-62.637c51.674,-85.867 98.868,-163.599 141.581,-233.196c11.073,-18.07 21.705,-39.059 32.173,-56.302c64.933,-107.058 124.044,-204.512 177.335,-292.362c38.49,-63.427 72.186,-116.736 101.09,-159.926c0.11,-0.164 0.169,-0.357 0.169,-0.554c0,-0.544 -0.448,-0.992 -0.992,-0.992c-0.114,0 -0.227,0.02 -0.334,0.058" style="fill:none;fill-rule:nonzero;stroke:#808080;stroke-width:11.02px;"/><path d="M1694.509,635.48c-62.582,-29.895 -128.268,-54.117 -197.057,-72.664c-1.641,-0.44 -2.876,-1.827 -3.14,-3.526l-31.732,-201.96c-0.257,-1.739 -1.595,-3.122 -3.305,-3.416c-16.527,-3.195 -42.125,-6.042 -76.795,-8.539c-98.354,-7.088 -198.654,-4.885 -300.901,6.611c-0.751,0.106 -1.353,0.686 -1.487,1.432l-35.423,206.257c-0.268,1.534 -1.441,2.772 -2.975,3.14c-61.737,14.801 -123.769,37.351 -186.094,67.65c-0.566,0.277 -0.927,0.854 -0.927,1.485c0,0.383 0.133,0.754 0.376,1.049l172.211,216.008c1.07,1.342 2.889,1.836 4.462,1.212c124.669,-48.644 262.559,-53.327 392.406,-25.066c4.554,0.992 10.522,3.103 17.904,6.335c3.9,1.692 8.424,1.097 11.734,-1.543l241.019,-192.209c0.325,-0.25 0.516,-0.638 0.516,-1.048c0,-0.524 -0.311,-1.001 -0.791,-1.211" style="fill:none;fill-rule:nonzero;stroke:#808080;stroke-width:11.02px;"/><path d="M878.792,1365.642c22.091,-43.246 53.603,-97.674 84.177,-134.199c37.939,-45.321 82.947,-83.902 135.025,-115.744c0.067,-0.04 0.132,-0.083 0.195,-0.128c1.634,-1.144 2.023,-3.45 0.861,-5.109c-0.039,-0.055 -0.079,-0.109 -0.12,-0.162c-61.333,-75.436 -133.483,-165.527 -216.448,-270.271c-73.49,-92.735 -130.784,-164.811 -171.881,-216.228c-36.58,-45.78 -68.091,-88.805 -101.365,-131.004c-2.674,-3.372 -6.756,-5.343 -11.073,-5.344l-322.001,0c-1.33,0 -2.424,1.094 -2.424,2.424l0,1855.925c0.012,1.382 1.152,2.513 2.534,2.513c0.873,0 1.686,-0.451 2.149,-1.19l321.67,-524.236c2.376,-3.853 3.635,-8.298 3.636,-12.836l0,-773.628c0.028,-1.612 1.362,-2.924 2.974,-2.924c0.898,0 1.75,0.407 2.314,1.106l264.432,331.586c0.606,0.757 1.525,1.198 2.494,1.198c1.202,0 2.306,-0.678 2.849,-1.749" style="fill:none;fill-rule:nonzero;stroke:#808080;stroke-width:11.02px;"/><path d="M844.251,2325.75c-0.055,0.047 -0.106,0.1 -0.152,0.156c-0.4,0.493 -0.344,1.211 0.125,1.593c0.059,0.048 0.124,0.09 0.192,0.124c62.399,34.633 126.835,59.387 193.311,74.261c3.294,0.739 5.828,3.426 6.39,6.776l35.698,205.871c0.444,2.552 2.565,4.49 5.123,4.683c81.056,7.052 163.323,9.2 246.803,6.446c75.951,-2.534 116.938,-3.875 122.961,-4.022c2.973,-0.105 5.488,-2.274 6.005,-5.178l35.974,-209.507c0.27,-1.569 1.435,-2.843 2.975,-3.25c89.503,-22.917 173.442,-58.836 251.816,-107.756c2.331,-1.428 5.297,-1.319 7.492,0.275c76.024,55.586 125.881,89.742 170.008,123.071c7.309,5.546 12.652,7.951 16.031,7.217c1.801,-0.424 3.364,-1.532 4.352,-3.085c3.25,-5.399 17.078,-19.887 24.57,-26.498c59.828,-52.703 118.021,-111.135 174.58,-175.296c18.345,-20.769 42.915,-47.047 62.637,-74.206c1.273,-1.741 1.273,-4.101 0,-5.784l-125.275,-173.203c-1.25,-1.727 -1.442,-4.004 -0.496,-5.895c14.709,-29.804 33.495,-62.582 46.771,-92.937c22.734,-52.189 41.06,-104.91 54.98,-158.163c0.467,-1.739 1.944,-3.043 3.746,-3.305l206.532,-28.812c1.809,-0.213 3.214,-1.735 3.305,-3.581c3.856,-58.01 12.175,-141.196 10.963,-222.012c-0.551,-34.56 -1.836,-60.452 -3.856,-77.677c-1.763,-14.727 -4.187,-40.767 -7.272,-78.118c-0.121,-1.363 -1.136,-2.491 -2.479,-2.754l-204.053,-35.037c-2.292,-0.366 -4.181,-2.019 -4.848,-4.242c-7.786,-25.452 -16.876,-53.621 -27.27,-84.508c-19.869,-58.91 -44.99,-113.045 -75.363,-162.405c-2.221,-3.645 -1.957,-8.308 0.661,-11.679l127.093,-163.176c0.934,-1.229 0.934,-2.933 0,-4.132l-45.064,-56.467c-0.27,-0.361 -0.696,-0.575 -1.147,-0.575c-0.498,0 -0.962,0.26 -1.222,0.685l-274.568,447.496c-0.798,1.286 -0.961,2.889 -0.441,4.352c4.664,13.258 8.429,24.001 11.293,32.228c25.525,73.563 38.673,150.23 39.444,230.001c1.102,113.449 -27.398,222.049 -85.5,325.802c-77.42,138.239 -192.282,239.641 -344.588,304.207c-129.516,54.87 -292.032,56.412 -427.002,20.273c-2.735,-0.728 -5.647,-0.112 -7.823,1.653l-233.416,186.094" style="fill:none;fill-rule:nonzero;stroke:#808080;stroke-width:11.02px;"/><path d="M7569.6,1266.896c-5.575,-5.973 -11.703,-13.34 -18.384,-22.101c-65.749,-86.146 -152.735,-135.258 -260.96,-147.337c-142.625,-15.862 -276.755,22.034 -379.493,123.047c-79.044,77.717 -123.445,188.95 -132.205,298.922c-14.734,184.238 37.631,355.534 194.791,462.586c84.686,57.74 160.744,79.443 262.088,77.916c108.512,-1.659 198.109,-37.697 278.481,-109.507c22.963,-20.574 43.869,-50.307 59.93,-76.456c0.158,-0.251 0.434,-0.403 0.73,-0.403c0.473,0 0.863,0.389 0.863,0.863c0,0.002 -0,0.003 -0,0.005l0,170.566c0,2.221 1.828,4.048 4.048,4.048l111.764,0c2.476,0 4.513,-2.037 4.513,-4.513l-0,-1317.01c-0,-2.221 -1.857,-4.048 -4.115,-4.048l-115.149,0c-2.294,0 -4.181,1.887 -4.181,4.181l0,538.179c-0.033,0.85 -0.741,1.532 -1.592,1.532c-0.424,0 -0.831,-0.169 -1.129,-0.47" style="fill:none;fill-rule:nonzero;stroke:#808080;stroke-width:13.27px;"/><path d="M5186.851,790.97c-0.857,0.008 -1.673,0.368 -2.257,0.996l-531.012,569.903c-0.588,0.617 -1.404,0.966 -2.257,0.966c-1.7,0 -3.103,-1.39 -3.119,-3.09l0,-565.058c0,-1.711 -1.408,-3.119 -3.119,-3.119l-285.914,0c-1.711,0 -3.119,1.408 -3.119,3.119l0,1251.106c-0,1.711 1.408,3.119 3.119,3.119l285.317,0c1.711,0 3.119,-1.408 3.119,-3.119l0,-316.842c-0.009,-0.814 0.3,-1.601 0.863,-2.19l162.536,-174.482c0.59,-0.63 1.415,-0.989 2.278,-0.989c0.984,0 1.912,0.466 2.5,1.254l382.944,494.044c0.591,0.754 1.498,1.195 2.456,1.195c0,0 342.593,0 342.593,0c1.711,0 3.119,-1.408 3.119,-3.119c0,-0.698 -0.234,-1.376 -0.665,-1.925l-531.742,-696.733c-0.935,-1.209 -0.85,-2.937 0.199,-4.048l508.513,-545.745c0.536,-0.577 0.835,-1.336 0.835,-2.124c0,-1.701 -1.391,-3.104 -3.091,-3.119l-334.097,0" style="fill:none;fill-rule:nonzero;stroke:#808080;stroke-width:13.27px;"/><path d="M2980.11,1324.304c8.318,9.911 16.127,20.972 23.428,33.184c47.298,79.509 101.543,172.336 162.735,278.481c54.886,95.305 105.127,176.805 162.137,271.977c2.885,4.809 8.084,7.762 13.672,7.765l113.954,0c8.89,-0.001 17.176,-4.661 21.835,-12.278c57.342,-94.243 141.895,-246.558 209.989,-358.388c34.865,-57.298 73.757,-122.582 116.675,-195.852c7.256,-12.433 14.712,-23.118 22.366,-32.056c0.085,-0.093 0.189,-0.17 0.305,-0.225c0.46,-0.219 1.006,-0.048 1.21,0.379c0.056,0.117 0.082,0.246 0.078,0.377l0,729.187c0,1.056 0.869,1.925 1.925,1.925l267.596,0c2.439,0 4.447,-1.977 4.447,-4.38l0,-1247.721c0,-2.621 -2.157,-4.779 -4.779,-4.779l-235.076,0c-5.015,0.005 -9.672,2.688 -12.212,7.035l-439.755,750.756c-0.661,1.088 -1.846,1.754 -3.119,1.754c-1.273,0 -2.458,-0.666 -3.119,-1.754l-444.136,-749.495c-3.125,-5.223 -8.781,-8.429 -14.866,-8.429l-240.253,0c-1.82,0 -3.318,1.498 -3.318,3.318l0,1249.513c0,2.221 1.828,4.048 4.048,4.048l268.26,0c1.966,0 3.584,-1.588 3.584,-3.518l0,-719.962c-0.001,-0.023 -0.002,-0.046 -0.002,-0.069c0,-0.728 0.599,-1.327 1.327,-1.327c0.419,0 0.813,0.198 1.064,0.533" style="fill:none;fill-rule:nonzero;stroke:#808080;stroke-width:13.27px;"/><path d="M5949.753,1035.669c0,-2.221 1.828,-4.048 4.048,-4.048l652.598,0c2.221,0 4.048,-1.828 4.048,-4.048l0,-232.023c0,-2.221 -1.828,-4.048 -4.048,-4.048l-943.821,0c-2.221,0 -4.048,1.828 -4.048,4.048l-0,1249.049c0,2.221 1.828,4.048 4.048,4.048l969.108,0c2.221,0 4.048,-1.828 4.048,-4.048l0,-234.28c0,-2.221 -1.828,-4.048 -4.048,-4.048l-678.083,0c-2.221,0 -4.048,-1.828 -4.048,-4.048l0,-271.18c0,-2.221 1.828,-4.048 4.048,-4.048l575.744,0c2.221,0 4.048,-1.828 4.048,-4.048l0,-222.333c0,-2.221 -1.828,-4.048 -4.048,-4.048l-575.545,0c-2.221,0 -4.048,-1.828 -4.048,-4.048l0,-256.845" style="fill:none;fill-rule:nonzero;stroke:#808080;stroke-width:13.27px;"/><path d="M8035.571,1616.058l763.035,0c2.148,0.003 3.943,-1.704 4.048,-3.849c5.132,-109.994 -15.154,-208.374 -60.86,-295.139c-82.761,-157.16 -248.151,-238.527 -426.681,-220.342c-271.711,27.742 -426.548,261.424 -407.235,522.251c17.189,232.222 186.561,409.16 417.456,437.565c157.093,19.313 314.917,-27.808 419.314,-148.598c2.047,-2.338 2.076,-5.859 0.066,-8.23l-66.899,-77.916c-0.037,-0.044 -0.076,-0.088 -0.115,-0.131c-1.834,-2.023 -5.03,-2.158 -7.08,-0.299c-0.036,0.032 -0.071,0.065 -0.106,0.099c-18.782,18.45 -38.892,40.684 -59.333,55.882c-110.503,82.363 -264.543,99.021 -387.789,30.994c-89.995,-49.643 -148.244,-121.896 -174.747,-216.758c-6.371,-22.919 -11.504,-47.188 -15.397,-72.806c-0.023,-0.132 -0.034,-0.265 -0.034,-0.398c0,-1.274 1.049,-2.323 2.323,-2.323c0.011,0 0.023,0 0.034,0" style="fill:none;fill-rule:nonzero;stroke:#808080;stroke-width:13.27px;"/><path d="M8977.8,1105.754c-0.351,-0.819 -1.167,-1.345 -2.057,-1.327l-128.223,0c-0.015,-0 -0.03,-0 -0.045,-0c-1.201,0 -2.19,0.989 -2.19,2.19c0,0.297 0.06,0.59 0.177,0.863l397.081,939.773c0.351,0.819 1.167,1.345 2.057,1.327l127.56,0c0.89,0.018 1.707,-0.509 2.057,-1.327l402.855,-939.574c0.117,-0.273 0.177,-0.566 0.177,-0.863c0,-1.193 -0.975,-2.178 -2.168,-2.19l-122.316,0c-0.89,-0.018 -1.707,0.509 -2.057,1.327l-336.885,785.6c-0.338,0.818 -1.139,1.354 -2.024,1.354c-0.885,0 -1.686,-0.536 -2.024,-1.354l-331.973,-785.799" style="fill:none;fill-rule:nonzero;stroke:#808080;stroke-width:13.27px;"/><path d="M1310.265,1347.905c-0,-0 -0,-0 -0,-0c-74.413,-22.042 -154.002,21.792 -176.31,97.103c-0,0 -0,0 -0,0c-22.308,75.311 20.567,155.42 94.98,177.462c0,0 0,0 0,0c74.413,22.042 154.002,-21.792 176.31,-97.103c0,-0 0,-0 0,-0c22.308,-75.311 -20.567,-155.42 -94.98,-177.462" style="fill:none;fill-rule:nonzero;stroke:#808080;stroke-width:11.02px;"/><path d="M6902.667,1570.928c-1.128,74.731 13.672,148.665 51.103,213.506c57.74,100.017 160.279,163.067 277.817,164.858c117.604,1.792 222.001,-58.072 282.795,-156.231c39.356,-63.647 56.413,-137.117 57.608,-211.847c1.128,-74.731 -13.672,-148.665 -51.103,-213.506c-57.74,-99.95 -160.279,-163 -277.817,-164.858c-117.604,-1.792 -222.001,58.072 -282.795,156.231c-39.423,63.713 -56.413,137.117 -57.608,211.847" style="fill:none;fill-rule:nonzero;stroke:#808080;stroke-width:13.27px;"/><path d="M8356.129,1518.962c107.074,-0.044 213.993,-0.155 320.757,-0.332c0.023,-0.001 0.046,-0.002 0.069,-0.004c0.871,-0.07 1.532,-0.815 1.465,-1.649c-0.002,-0.024 -0.004,-0.048 -0.008,-0.072c-20.043,-135.059 -76.589,-243.837 -208.529,-294.077c-36.812,-13.982 -74.753,-20.972 -113.821,-20.972c-39.113,0 -77.053,7.013 -113.821,21.039c-131.94,50.307 -188.419,159.084 -208.396,294.21c-0.003,0.024 -0.006,0.048 -0.008,0.072c-0.067,0.835 0.594,1.579 1.465,1.649c0.023,0.002 0.046,0.003 0.069,0.004c106.764,0.133 213.683,0.177 320.757,0.133" style="fill:none;fill-rule:nonzero;stroke:#808080;stroke-width:13.27px;"/></g><path d="M2349.088,263.237c0.107,-0.038 0.22,-0.058 0.334,-0.058c0.544,0 0.992,0.448 0.992,0.992c0,0.197 -0.059,0.39 -0.169,0.554c-28.904,43.191 -62.601,96.499 -101.09,159.926c-53.29,87.85 -112.402,185.304 -177.335,292.362c-10.467,17.243 -21.099,38.232 -32.173,56.302c-42.713,69.597 -89.907,147.329 -141.581,233.196c-17.849,29.675 -30.685,50.554 -38.508,62.637c-18.345,28.426 -33.66,56.632 -50.352,84.233c-91.78,151.608 -160.826,266.158 -207.138,343.651c-32.558,54.484 -71.231,112.769 -103.073,171.936c-5.619,10.504 -12.23,18.565 -19.832,24.184c-52.299,38.857 -97.179,72.976 -134.64,102.357c-153.113,119.912 -265.35,208.277 -336.71,265.093c-24.515,19.502 -52.886,39.059 -76.355,57.789c-114.954,91.78 -184.919,147.384 -209.893,166.812c-133.428,103.826 -305.51,238.154 -516.248,402.983c-0.46,0.369 -1.032,0.57 -1.621,0.57c-1.42,0 -2.589,-1.169 -2.589,-2.589c0,-0.495 0.142,-0.98 0.409,-1.396c46.496,-77.971 93.396,-155.794 140.7,-233.471c108.527,-178.234 248.235,-407.115 419.124,-686.641c6.28,-10.283 15.499,-25.929 27.655,-46.937c16.031,-27.765 34.321,-52.391 51.84,-81.864c46.165,-77.64 75.179,-125.715 87.042,-144.225c54.98,-85.867 91.963,-147.053 110.951,-183.56c8.098,-15.59 25.396,-32.889 40.987,-45.504c86.124,-69.413 171.66,-136.917 256.609,-202.511c0.808,-0.624 12.377,-9.659 34.707,-27.104c29.528,-23.064 132.253,-104.597 308.173,-244.599c132.436,-105.442 235.308,-186.755 308.614,-243.938c84.067,-65.63 200.931,-157.447 350.592,-275.45c3.122,-2.461 6.648,-4.37 10.577,-5.729Zm-1038.822,1084.668c-0,-0 -0,-0 -0,-0c-74.413,-22.042 -154.002,21.792 -176.31,97.103c-0,0 -0,0 -0,0c-22.308,75.311 20.567,155.42 94.98,177.462c0,0 0,0 0,0c74.413,22.042 154.002,-21.792 176.31,-97.103c0,-0 0,-0 0,-0c22.308,-75.311 -20.567,-155.42 -94.98,-177.462Z" style="fill:#005ffc;fill-rule:nonzero;"/><path d="M1694.509,635.48c0.48,0.21 0.791,0.687 0.791,1.211c0,0.41 -0.191,0.798 -0.516,1.048l-241.019,192.209c-3.31,2.64 -7.834,3.234 -11.734,1.543c-7.382,-3.232 -13.35,-5.344 -17.904,-6.335c-129.847,-28.261 -267.737,-23.578 -392.406,25.066c-1.574,0.624 -3.393,0.13 -4.462,-1.212l-172.211,-216.008c-0.243,-0.296 -0.376,-0.667 -0.376,-1.049c0,-0.63 0.361,-1.208 0.927,-1.485c62.325,-30.299 124.356,-52.85 186.094,-67.65c1.534,-0.368 2.707,-1.606 2.975,-3.14l35.423,-206.257c0.135,-0.746 0.737,-1.326 1.487,-1.432c102.247,-11.495 202.547,-13.699 300.901,-6.611c34.67,2.497 60.268,5.344 76.795,8.539c1.71,0.293 3.049,1.677 3.305,3.416l31.732,201.96c0.264,1.699 1.499,3.085 3.14,3.526c68.789,18.547 134.475,42.768 197.057,72.664Z" style="fill:#005ffc;fill-rule:nonzero;"/><path d="M878.792,1365.642c-0.544,1.071 -1.648,1.749 -2.849,1.749c-0.97,0 -1.888,-0.441 -2.494,-1.198l-264.432,-331.586c-0.564,-0.699 -1.416,-1.106 -2.314,-1.106c-1.613,0 -2.947,1.311 -2.974,2.924l0,773.628c-0.001,4.538 -1.26,8.983 -3.636,12.836l-321.67,524.236c-0.463,0.74 -1.276,1.19 -2.149,1.19c-1.382,0 -2.522,-1.131 -2.534,-2.513l0,-1855.925c0,-1.33 1.094,-2.424 2.424,-2.424l322.001,-0c4.317,0.001 8.399,1.971 11.073,5.344c33.274,42.199 64.786,85.224 101.365,131.004c41.097,51.417 98.391,123.493 171.881,216.228c82.965,104.744 155.115,194.835 216.448,270.271c0.042,0.053 0.082,0.107 0.12,0.162c1.161,1.659 0.773,3.965 -0.861,5.109c-0.064,0.045 -0.129,0.087 -0.195,0.128c-52.078,31.842 -97.087,70.423 -135.025,115.744c-30.575,36.525 -62.086,90.953 -84.177,134.199Z" style="fill:#005ffc;fill-rule:nonzero;"/><path d="M844.251,2325.75l233.416,-186.094c2.176,-1.765 5.087,-2.38 7.823,-1.653c134.97,36.139 297.486,34.596 427.002,-20.273c152.305,-64.565 267.168,-165.968 344.588,-304.207c58.102,-103.753 86.601,-212.353 85.5,-325.802c-0.771,-79.77 -13.919,-156.437 -39.444,-230.001c-2.865,-8.227 -6.629,-18.969 -11.293,-32.228c-0.52,-1.463 -0.358,-3.067 0.441,-4.352l274.568,-447.496c0.26,-0.425 0.724,-0.685 1.222,-0.685c0.451,0 0.877,0.213 1.147,0.575l45.064,56.467c0.934,1.199 0.934,2.902 0,4.132l-127.093,163.176c-2.618,3.371 -2.882,8.034 -0.661,11.679c30.373,49.361 55.494,103.496 75.363,162.405c10.394,30.887 19.483,59.056 27.27,84.508c0.667,2.223 2.556,3.876 4.848,4.242l204.053,35.037c1.343,0.264 2.358,1.391 2.479,2.754c3.085,37.351 5.509,63.39 7.272,78.118c2.02,17.225 3.305,43.117 3.856,77.677c1.212,80.817 -7.107,164.003 -10.963,222.012c-0.092,1.845 -1.497,3.368 -3.305,3.581l-206.532,28.812c-1.802,0.263 -3.279,1.566 -3.746,3.305c-13.919,53.254 -32.246,105.975 -54.98,158.163c-13.277,30.355 -32.062,63.133 -46.771,92.937c-0.946,1.89 -0.755,4.168 0.496,5.895l125.275,173.203c1.273,1.683 1.273,4.043 0,5.784c-19.722,27.159 -44.292,53.437 -62.637,74.206c-56.559,64.161 -114.752,122.593 -174.58,175.296c-7.492,6.611 -21.32,21.099 -24.57,26.498c-0.988,1.553 -2.551,2.661 -4.352,3.085c-3.379,0.735 -8.723,-1.671 -16.031,-7.217c-44.127,-33.329 -93.983,-67.485 -170.008,-123.071c-2.195,-1.595 -5.161,-1.704 -7.492,-0.275c-78.375,48.92 -162.313,84.839 -251.816,107.756c-1.539,0.407 -2.705,1.681 -2.975,3.25l-35.974,209.507c-0.517,2.904 -3.031,5.073 -6.005,5.178c-6.023,0.147 -47.01,1.487 -122.961,4.022c-83.48,2.754 -165.747,0.606 -246.803,-6.446c-2.559,-0.192 -4.68,-2.131 -5.123,-4.683l-35.698,-205.871c-0.562,-3.35 -3.096,-6.037 -6.39,-6.776c-66.475,-14.874 -130.912,-39.628 -193.311,-74.261c-0.068,-0.034 -0.133,-0.076 -0.192,-0.124c-0.469,-0.381 -0.526,-1.1 -0.125,-1.593c0.046,-0.057 0.097,-0.109 0.152,-0.156Z" style="fill:#005ffc;fill-rule:nonzero;"/><path d="M7569.6,1266.896c0.299,0.301 0.706,0.47 1.129,0.47c0.851,0 1.559,-0.681 1.592,-1.532l0,-538.179c0,-2.294 1.887,-4.181 4.181,-4.181l115.149,0c2.257,0 4.115,1.828 4.115,4.048l0,1317.01c0,2.476 -2.037,4.513 -4.513,4.513l-111.764,0c-2.221,0 -4.048,-1.828 -4.048,-4.048l0,-170.566c0,-0.002 0,-0.003 0,-0.005c0,-0.473 -0.389,-0.863 -0.863,-0.863c-0.296,0 -0.572,0.152 -0.73,0.403c-16.061,26.149 -36.967,55.882 -59.93,76.456c-80.372,71.81 -169.969,107.848 -278.481,109.507c-101.344,1.526 -177.402,-20.176 -262.088,-77.916c-157.16,-107.052 -209.524,-278.348 -194.791,-462.586c8.761,-109.972 53.161,-221.205 132.205,-298.922c102.738,-101.012 236.868,-138.909 379.493,-123.047c108.224,12.079 195.211,61.191 260.96,147.337c6.681,8.761 12.809,16.127 18.384,22.101Zm-666.934,304.032c-1.128,74.731 13.672,148.665 51.103,213.506c57.74,100.017 160.279,163.067 277.817,164.858c117.604,1.792 222.001,-58.072 282.795,-156.231c39.356,-63.647 56.413,-137.117 57.608,-211.847c1.128,-74.731 -13.672,-148.665 -51.103,-213.506c-57.74,-99.95 -160.279,-163 -277.817,-164.858c-117.604,-1.792 -222.001,58.072 -282.795,156.231c-39.423,63.713 -56.413,137.117 -57.608,211.847Z" style="fill-rule:nonzero;"/><path d="M5186.851,790.97l334.097,0c1.701,0.015 3.091,1.419 3.091,3.119c0,0.788 -0.298,1.547 -0.835,2.124l-508.513,545.745c-1.049,1.112 -1.134,2.839 -0.199,4.048l531.742,696.733c0.43,0.549 0.665,1.227 0.665,1.925c0,1.711 -1.408,3.119 -3.119,3.119c-0,0 -342.593,-0 -342.593,-0c-0.958,0 -1.865,-0.441 -2.456,-1.195l-382.944,-494.044c-0.588,-0.789 -1.516,-1.254 -2.5,-1.254c-0.863,0 -1.689,0.358 -2.278,0.989l-162.536,174.482c-0.562,0.589 -0.872,1.376 -0.863,2.19l0,316.842c0,1.711 -1.408,3.119 -3.119,3.119l-285.317,0c-1.711,0 -3.119,-1.408 -3.119,-3.119l0,-1251.106c-0,-1.711 1.408,-3.119 3.119,-3.119l285.914,0c1.711,0 3.119,1.408 3.119,3.119l0,565.058c0.016,1.7 1.419,3.09 3.119,3.09c0.852,0 1.668,-0.349 2.257,-0.966l531.012,-569.903c0.583,-0.627 1.4,-0.988 2.257,-0.996Z" style="fill:#005ffc;fill-rule:nonzero;"/><path d="M2977.721,1325.167l0,719.962c0,1.93 -1.618,3.518 -3.584,3.518l-268.26,0c-2.221,0 -4.048,-1.828 -4.048,-4.048l0,-1249.513c0,-1.82 1.498,-3.318 3.318,-3.318l240.253,0c6.086,-0.001 11.742,3.206 14.866,8.429l444.136,749.495c0.661,1.088 1.846,1.754 3.119,1.754c1.273,0 2.458,-0.666 3.119,-1.754l439.755,-750.756c2.54,-4.347 7.197,-7.03 12.212,-7.035l235.076,-0c2.621,0 4.779,2.157 4.779,4.779l0,1247.721c0,2.403 -2.007,4.38 -4.447,4.38l-267.596,0c-1.056,0 -1.925,-0.869 -1.925,-1.925l0,-729.187c0.004,-0.131 -0.022,-0.26 -0.078,-0.377c-0.204,-0.427 -0.75,-0.598 -1.21,-0.379c-0.116,0.055 -0.219,0.132 -0.305,0.225c-7.654,8.938 -15.11,19.623 -22.366,32.056c-42.918,73.27 -81.81,138.555 -116.675,195.852c-68.094,111.83 -152.647,264.145 -209.989,358.388c-4.659,7.617 -12.945,12.277 -21.835,12.278l-113.954,0c-5.588,-0.003 -10.787,-2.956 -13.672,-7.765c-57.01,-95.172 -107.251,-176.672 -162.137,-271.977c-61.191,-106.145 -115.436,-198.972 -162.735,-278.481c-7.3,-12.212 -15.11,-23.273 -23.428,-33.184c-0.25,-0.335 -0.645,-0.533 -1.064,-0.533c-0.728,0 -1.327,0.599 -1.327,1.327c0,0.023 0.001,0.046 0.002,0.069Z" style="fill:#005ffc;fill-rule:nonzero;"/><path d="M5949.753,1035.669l0,256.845c0,2.221 1.828,4.048 4.048,4.048l575.545,-0c2.221,0 4.048,1.828 4.048,4.048l0,222.333c0,2.221 -1.828,4.048 -4.048,4.048l-575.744,-0c-2.221,-0 -4.048,1.828 -4.048,4.048l0,271.18c0,2.221 1.828,4.048 4.048,4.048l678.083,0c2.221,0 4.048,1.828 4.048,4.048l0,234.28c0,2.221 -1.828,4.048 -4.048,4.048l-969.108,0c-2.221,0 -4.048,-1.828 -4.048,-4.048l-0,-1249.049c0,-2.221 1.828,-4.048 4.048,-4.048l943.821,0c2.221,0 4.048,1.828 4.048,4.048l0,232.023c0,2.221 -1.828,4.048 -4.048,4.048l-652.598,0c-2.221,0 -4.048,1.828 -4.048,4.048Z" style="fill:#005ffc;fill-rule:nonzero;"/><path d="M8035.571,1616.058c-0.011,-0 -0.023,-0 -0.034,-0c-1.274,0 -2.323,1.049 -2.323,2.323c0,0.134 0.012,0.267 0.034,0.398c3.894,25.618 9.026,49.887 15.397,72.806c26.503,94.862 84.752,167.115 174.747,216.758c123.246,68.027 277.286,51.369 387.789,-30.994c20.441,-15.198 40.551,-37.432 59.333,-55.882c0.035,-0.033 0.07,-0.066 0.106,-0.099c2.05,-1.859 5.246,-1.724 7.08,0.299c0.039,0.043 0.077,0.087 0.115,0.131l66.899,77.916c2.009,2.371 1.981,5.891 -0.066,8.23c-104.397,120.79 -262.221,167.911 -419.314,148.598c-230.895,-28.406 -400.266,-205.343 -417.456,-437.565c-19.313,-260.827 135.524,-494.509 407.235,-522.251c178.53,-18.185 343.92,63.182 426.681,220.342c45.706,86.765 65.992,185.145 60.86,295.139c-0.106,2.145 -1.901,3.852 -4.048,3.849l-763.035,0Zm320.558,-97.097c107.074,-0.044 213.993,-0.155 320.757,-0.332c0.023,-0.001 0.046,-0.002 0.069,-0.004c0.871,-0.07 1.532,-0.815 1.465,-1.649c-0.002,-0.024 -0.004,-0.048 -0.008,-0.072c-20.043,-135.059 -76.589,-243.837 -208.529,-294.077c-36.812,-13.982 -74.753,-20.972 -113.821,-20.972c-39.113,0 -77.053,7.013 -113.821,21.039c-131.94,50.307 -188.419,159.084 -208.396,294.21c-0.003,0.024 -0.006,0.048 -0.008,0.072c-0.067,0.835 0.594,1.579 1.465,1.649c0.023,0.002 0.046,0.003 0.069,0.004c106.764,0.133 213.683,0.177 320.757,0.133Z" style="fill-rule:nonzero;"/><path d="M8977.8,1105.754l331.973,785.799c0.338,0.818 1.139,1.354 2.024,1.354c0.885,0 1.686,-0.536 2.024,-1.354l336.885,-785.6c0.351,-0.819 1.167,-1.345 2.057,-1.327l122.316,0c1.193,0.012 2.168,0.997 2.168,2.19c0,0.297 -0.06,0.59 -0.177,0.863l-402.855,939.574c-0.351,0.819 -1.167,1.345 -2.057,1.327l-127.56,0c-0.89,0.018 -1.707,-0.509 -2.057,-1.327l-397.081,-939.773c-0.117,-0.273 -0.177,-0.566 -0.177,-0.863c0,-1.201 0.989,-2.19 2.19,-2.19c0.015,0 0.03,0 0.045,0l128.223,0c0.89,-0.018 1.707,0.509 2.057,1.327Z" style="fill-rule:nonzero;"/></g></svg>